# xmcd CD database file
#
# Track frame offsets:
#	150
#	13067
#	24662
#	37092
#	46842
#	58622
#	72435
#	86437
#	105902
#	116987
#	128365
#	142207
#	158750
#	167910
#
# Disc length: 2454 seconds
#
# Revision: 0
# Processed by: cddbd v1.5.1PL2 Copyright (c) Steve Scherf et al.
# Submitted via: CDex 1.51
#
DISCID=bc09940e
DTITLE=Rodney Vincent - Just For Old Times Sake
DYEAR=1900
DGENRE=Country
TTITLE0=Remember
TTITLE1=Just A Little Street Where Old Friends Meet
TTITLE2=Ramblin Rose
TTITLE3=When Your Hair Has Turned To Silver
TTITLE4=Some Sunday Morning
TTITLE5=Let The Rest Of The World Go By
TTITLE6=After All these Years
TTITLE7=I Just Called To Say I love You
TTITLE8=Silver Hair and Heart Of Gold
TTITLE9=Bring Me Sunshine
TTITLE10=Could I Have This Dance
TTITLE11=Whatever Happened To Old Fashioned Love
TTITLE12=A Mother As Lovely As You
TTITLE13=Maggie
EXTD=
EXTT0=
EXTT1=
EXTT2=
EXTT3=
EXTT4=
EXTT5=
EXTT6=
EXTT7=
EXTT8=
EXTT9=
EXTT10=
EXTT11=
EXTT12=
EXTT13=
PLAYORDER=
